<?xml version="1.0" encoding="utf-8"?>
<!-- Generator: Adobe Illustrator 16.0.0, SVG Export Plug-In . SVG Version: 6.00 Build 0)  -->
<!DOCTYPE svg PUBLIC "-//W3C//DTD SVG 1.1//EN" "http://www.w3.org/Graphics/SVG/1.1/DTD/svg11.dtd">
<svg version="1.1" xmlns="http://www.w3.org/2000/svg" xmlns:xlink="http://www.w3.org/1999/xlink" x="0px" y="0px" width="437px"
	 height="64px" viewBox="0 0 437 64" style="enable-background:new 0 0 437 64;" xml:space="preserve">
<style type="text/css">
<![CDATA[
	.st0{fill:#FFFFFF;stroke:#FFFFFF;stroke-linejoin:round;stroke-miterlimit:10;}
	.st1{fill:none;stroke:#FFFFFF;stroke-width:2;stroke-miterlimit:10;}
	.st2{fill:none;stroke:#FFFF00;stroke-width:4;stroke-miterlimit:10;}
	.st3{fill:none;stroke:#FFFFFF;stroke-width:2;stroke-linejoin:round;stroke-miterlimit:10;}
	.st4{fill:none;stroke:#FFFFFF;stroke-width:2;stroke-linecap:round;stroke-linejoin:round;stroke-miterlimit:10;}
	.st5{fill:none;stroke:#FFFFFF;stroke-width:1.5;stroke-linecap:round;stroke-linejoin:round;stroke-miterlimit:10;}
	.st6{fill:none;stroke:#FFFFFF;stroke-width:4;stroke-linecap:round;stroke-miterlimit:10;}
	.st7{display:inline;opacity:0.5;}
	.st8{fill:#FFFFFF;stroke:#FFFFFF;stroke-width:2;stroke-miterlimit:10;}
	.st9{display:inline;opacity:0.3;fill:#DD0000;}
	.st10{fill:none;stroke:#FFFFFF;stroke-linecap:round;stroke-linejoin:round;stroke-miterlimit:10;}
	.st11{fill:#FFFF00;}
	.st12{fill:#FFFFFF;}
	.st13{fill:none;stroke:#FFFFFF;stroke-width:1.5;stroke-linecap:round;stroke-miterlimit:10;}
	.st14{fill:none;stroke:#FFFFFF;stroke-width:1.5;stroke-miterlimit:10;}
	.st15{fill:none;stroke:#FFFF00;stroke-width:2;stroke-linecap:round;stroke-linejoin:round;stroke-miterlimit:10;}
	.st16{display:inline;opacity:0.5;fill:#0000FF;}
	.st17{fill:#000090;stroke:#000090;stroke-width:2;stroke-miterlimit:10;}
	.st18{fill:#DE2600;stroke:#DE2600;stroke-width:2;stroke-miterlimit:10;}
	.st19{fill:none;stroke:#FFFFFF;stroke-width:4;stroke-miterlimit:10;}
	.st20{fill:none;stroke:#FFFF00;stroke-width:1.5;stroke-linecap:round;stroke-linejoin:round;stroke-miterlimit:10;}
	.st21{fill:#000090;}
	.st22{fill:#FFFFFF;stroke:#FFFFFF;stroke-miterlimit:10;}
	.st23{fill:#FFFF00;stroke:#FFFF00;stroke-linejoin:round;stroke-miterlimit:10;}
	.st24{display:none;}
	.st25{fill:#FFFFFF;stroke:#FFFFFF;stroke-linecap:round;stroke-linejoin:round;stroke-miterlimit:10;}
	.st26{fill:none;stroke:#FFFFFF;stroke-width:3;stroke-miterlimit:10;}
]]>
</style>
<g id="Calque_2" class="st24">
	<rect class="st9" width="437" height="16"/>
	<rect y="16" class="st7" width="437" height="24"/>
	<rect y="40" class="st16" width="437" height="24"/>
</g>
<g id="Calque_1">
	<polygon class="st12" points="282,12 287,7 284,7 284,1 280,1 280,7 277,7 	"/>
	<rect x="292" y="1" class="st12" width="3" height="14"/>
	<path class="st12" d="M296,2v7c0,0,2.9-0.9,4-1c1-0.1,2.7,0.9,4,1c1.1,0.1,4-1,4-1V1c0,0-3.1,1-4,1c-1.1,0-2.4-1.1-4-1
		C298.2,1.1,296,2,296,2z"/>
	<circle class="st22" cx="256" cy="8" r="1"/>
	<circle class="st22" cx="261" cy="8" r="1"/>
	<circle class="st22" cx="266" cy="8" r="1"/>
	<g>
		<rect x="57" y="20" class="st12" width="14" height="2"/>
		<rect x="49" y="20" class="st12" width="4" height="2"/>
		<rect x="61" y="34" class="st12" width="10" height="2"/>
		<rect x="49" y="34" class="st12" width="8" height="2"/>
		<rect x="49" y="27" class="st12" width="15" height="2"/>
		<rect x="68" y="27" class="st12" width="3" height="2"/>
		<circle class="st12" cx="55" cy="21" r="3"/>
		<circle class="st12" cx="66" cy="28" r="3"/>
		<circle class="st12" cx="59" cy="35" r="3"/>
		<rect x="73" y="20" class="st12" width="22" height="2"/>
		<rect x="73" y="34" class="st12" width="22" height="2"/>
		<rect x="73" y="27" class="st12" width="15" height="2"/>
		<rect x="92" y="27" class="st12" width="3" height="2"/>
		<circle class="st12" cx="90" cy="21" r="3"/>
		<circle class="st12" cx="90" cy="28" r="3"/>
		<circle class="st12" cx="90" cy="35" r="3"/>
	</g>
	<g>
		<path class="st12" d="M18.2,2.7c-0.6,0.3-1.3,0.5-2,0.6c0.7-0.4,1.3-1.1,1.6-2c-0.7,0.4-1.4,0.7-2.2,0.9c-0.6-0.7-1.6-1.1-2.6-1.1
			c-2,0-3.5,1.6-3.5,3.5c0,0.3,0,0.5,0.1,0.8C6.5,5.3,3.9,3.9,2.2,1.7C1.9,2.3,1.7,2.9,1.7,3.5c0,1.2,0.6,2.3,1.6,2.9
			C2.7,6.4,2.2,6.3,1.7,6c0,0,0,0,0,0c0,1.7,1.2,3.1,2.8,3.5C4.2,9.6,3.9,9.6,3.6,9.6c-0.2,0-0.4,0-0.7-0.1C3.4,11,4.7,12,6.2,12
			C5,13,3.5,13.6,1.8,13.6c-0.3,0-0.6,0-0.8,0c1.6,1,3.4,1.6,5.4,1.6c6.5,0,10.1-5.4,10.1-10.1c0-0.2,0-0.3,0-0.5
			C17.2,4.1,17.8,3.5,18.2,2.7L18.2,2.7z"/>
	</g>
	<circle class="st12" cx="20" cy="14" r="1"/>
	<path class="st1" d="M24,15c0-2.8-2.2-5-5-5"/>
	<path class="st1" d="M32,15c0-7.2-5.8-13-13-13"/>
	<path class="st1" d="M28,15c0-5-4-9-9-9"/>
	<circle class="st14" cx="231.1" cy="23.1" r="3.1"/>
	<line class="st13" x1="233.8" y1="25.8" x2="236.5" y2="28.5"/>
	<g>
		<rect x="1" y="18" class="st12" width="22" height="4"/>
		<rect x="1" y="34" class="st12" width="22" height="4"/>
		<rect x="1" y="26" class="st12" width="22" height="4"/>
		<rect x="26" y="17" class="st12" width="4" height="22"/>
		<rect x="42" y="17" class="st12" width="4" height="22"/>
		<rect x="34" y="17" class="st12" width="4" height="22"/>
	</g>
	<g>
		<circle class="st26" cx="10" cy="50" r="7"/>
		<line class="st6" x1="16" y1="56" x2="21" y2="61"/>
		<circle class="st26" cx="34" cy="50" r="7"/>
		<line class="st6" x1="40" y1="56" x2="45" y2="61"/>
		<line class="st1" x1="31" y1="47" x2="37" y2="53"/>
		<line class="st1" x1="31" y1="53" x2="37" y2="47"/>
	</g>
	<g>
		<path class="st4" d="M45.4,12c-0.9,0.9-2.1,1.4-3.4,1.4c-2.7,0-4.9-2.2-4.9-4.9"/>
		<path class="st4" d="M38.5,4.1c0.9-0.9,2.1-1.5,3.5-1.5c2.7,0,4.9,2.2,4.9,4.9"/>
		<path class="st4" d="M37.1,6.4"/>
		<polyline class="st5" points="34.1,9.5 37.1,6.5 40.1,9.5 		"/>
		<polyline class="st5" points="43.9,6.5 46.9,9.5 49.9,6.5 		"/>
	</g>
	<g>
		<path class="st15" d="M63.4,12c-0.9,0.9-2.1,1.4-3.4,1.4c-2.7,0-4.9-2.2-4.9-4.9"/>
		<path class="st15" d="M56.5,4.1c0.9-0.9,2.1-1.5,3.5-1.5c2.7,0,4.9,2.2,4.9,4.9"/>
		<path class="st15" d="M55.1,6.4"/>
		<polyline class="st20" points="52.1,9.5 55.1,6.5 58.1,9.5 		"/>
		<polyline class="st20" points="61.9,6.5 64.9,9.5 67.9,6.5 		"/>
	</g>
	<g>
		<path class="st4" d="M63.8,57.6c-1.2,1.2-2.9,2-4.8,2c-3.8,0-6.8-3.1-6.8-6.8"/>
		<path class="st4" d="M54.1,46.5c1.2-1.3,3-2,4.9-2c3.8,0,6.8,3.1,6.8,6.8"/>
		<path class="st4" d="M52.2,49.8"/>
		<polyline class="st5" points="48,54.1 52.2,49.9 56.4,54.1 		"/>
		<polyline class="st5" points="61.6,49.9 65.8,54.1 70,49.9 		"/>
	</g>
	<polygon class="st12" points="73,41 93,41 83,45 	"/>
	<path class="st12" d="M89,49c1.5,0,2.8,0.4,4,1.1V43l-10,4l-10-4v10h9.1C83.5,50.6,86,49,89,49z"/>
	<path class="st12" d="M89,51c-3.3,0-6,2.7-6,6s2.7,6,6,6s6-2.7,6-6S92.3,51,89,51z M90,62h-2v-6h2V62z M89.8,54.9
		c-0.2,0.2-0.5,0.3-0.8,0.3s-0.6-0.1-0.8-0.3s-0.3-0.4-0.3-0.8c0-0.3,0.1-0.5,0.3-0.7s0.5-0.3,0.8-0.3s0.6,0.1,0.8,0.3
		s0.3,0.5,0.3,0.7C90.1,54.4,90,54.7,89.8,54.9z"/>
	<g>
		<polygon class="st12" points="70,1 83.7,1 76.8,3.6 		"/>
		<path class="st12" d="M82,6c0.7,0,1,0.2,2,0.4V2.2l-7,2.6l-7-2.6V9h7.5C78.2,7.2,80,6,82,6z"/>
		<path class="st12" d="M82,7c-2.2,0-4,1.8-4,4c0,2.2,1.8,4,4,4c2.2,0,4-1.8,4-4C86,8.8,84.2,7,82,7z M83,14h-2v-4h2V14z M82.6,9.4
			c-0.1,0.1-0.3,0.2-0.5,0.2s-0.4-0.1-0.5-0.2s-0.2-0.3-0.2-0.5c0-0.2,0.1-0.4,0.2-0.5s0.3-0.2,0.5-0.2s0.4,0.1,0.5,0.2
			s0.2,0.3,0.2,0.5C82.8,9.1,82.7,9.3,82.6,9.4z"/>
	</g>
	<g>
		<polygon class="st11" points="88,1 101.7,1 94.8,3.6 		"/>
		<path class="st11" d="M100,6c0.7,0,1,0.2,2,0.4V2.2l-7,2.6l-7-2.6V9h7.5C96.2,7.2,98,6,100,6z"/>
		<path class="st11" d="M100,7c-2.2,0-4,1.8-4,4c0,2.2,1.8,4,4,4c2.2,0,4-1.8,4-4C104,8.8,102.2,7,100,7z M101,14h-2v-4h2V14z
			 M100.6,9.4c-0.1,0.1-0.3,0.2-0.5,0.2s-0.4-0.1-0.5-0.2s-0.2-0.3-0.2-0.5c0-0.2,0.1-0.4,0.2-0.5s0.3-0.2,0.5-0.2s0.4,0.1,0.5,0.2
			s0.2,0.3,0.2,0.5C100.8,9.1,100.7,9.3,100.6,9.4z"/>
	</g>
	<circle class="st1" cx="143" cy="8" r="6.5"/>
	<polyline class="st1" points="139,8 143,8 143,4 	"/>
	<path class="st4" d="M153,8c0,0,5-5,9-5s9,5,9,5s-5,5-9,5S153,8,153,8z"/>
	<circle class="st12" cx="162" cy="7" r="4"/>
	<polygon class="st10" points="174,6.5 179,6.5 181,1.5 183,6.5 188,6.5 184,10.3 186,15.1 181,12.1 176,15 178,10.3 	"/>
	<polygon class="st10" points="190,6.5 195,6.5 197,1.5 199,6.5 204,6.5 200,10.3 202,15.1 197,12.1 192,15 194,10.3 	"/>
	<polygon class="st12" points="197,12.1 191.8,15 194.4,10.5 190,7 195,7 197,2 	"/>
	<polygon class="st25" points="206,6.5 211,6.5 213,1.5 215,6.5 220,6.5 216,10.3 218,15.1 213,12.1 208,15 210,10.3 	"/>
	<polygon class="st0" points="221.5,9 222,8.5 224,8 226.9,5.5 228,4.1 228.5,1.5 229.5,1.5 229.5,3 229,5 228,6.3 229,7.5 233,7.5 
		234,9 233,13 230,14.5 226,14.5 224,13.5 223,13.5 221.5,13 	"/>
	<polygon class="st0" points="235.5,7 236,7.5 238,8 240.9,10.5 242,11.9 242.5,14.5 243.5,14.5 243.5,13 243,11 242,9.8 243,8.5 
		247,8.5 248,7 247,3 244,1.5 240,1.5 238,2.5 237,2.5 235.5,3 	"/>
	<path class="st3" d="M251,8c0-2.9,4-6,10-6s10,3.1,10,6c0,3-4,6-10,6S251,10.9,251,8z"/>
	<polygon class="st0" points="252.6,10.8 250.8,14.9 254.1,12.3 	"/>
	<polygon class="st0" points="106.5,15 106.5,1.5 118.5,1.5 118.5,15 112.5,8 	"/>
	<polygon class="st23" points="121.5,15 121.5,1.5 133.5,1.5 133.5,15 127.5,8 	"/>
	<path class="st12" d="M290,11h-5l-3,3l-3-3h-5c-0.5,0-1,0.5-1,1v2c0,0.5,0.5,1,1,1h16c0.5,0,1-0.5,1-1v-2C291,11.5,290.5,11,290,11
		z M287.5,14c-0.3,0-0.5-0.2-0.5-0.5s0.2-0.5,0.5-0.5s0.5,0.2,0.5,0.5S287.8,14,287.5,14z M289.5,14c-0.3,0-0.5-0.2-0.5-0.5
		s0.2-0.5,0.5-0.5s0.5,0.2,0.5,0.5S289.8,14,289.5,14z"/>
	<path class="st12" d="M320,10c0,1.1-0.9,2-2,2h-6c-1.1,0-2-0.9-2-2V6c0-1.1,0.9-2,2-2h6c1.1,0,2,0.9,2,2V10z"/>
	<polygon class="st12" points="320,6 324,4 324,12 320,10 	"/>
	<path class="st12" d="M336,10c0,1.1-0.9,2-2,2h-6c-1.1,0-2-0.9-2-2V6c0-1.1,0.9-2,2-2h6c1.1,0,2,0.9,2,2V10z"/>
	<polygon class="st12" points="336,6 340,4 340,12 336,10 	"/>
	<line class="st18" x1="327" y1="14" x2="339" y2="2"/>
	<path class="st12" d="M354,7.2l1.9-0.6c-0.2-1-0.5-1.9-1.1-2.7l-1.8,0.9l-0.9-0.9l0.9-1.8c-0.8-0.5-1.7-0.9-2.7-1L349.8,3h-1.3
		l-0.6-1.9c-1,0.2-1.9,0.5-2.7,1.1l0.9,1.8l-0.9,0.9l-1.8-0.9c-0.5,0.8-1,1.7-1.1,2.7l1.8,0.6v1.3l-1.8,0.6c0.2,1,0.6,1.9,1.1,2.7
		l1.8-0.9l0.9,0.9l-0.9,1.8c0.8,0.5,1.7,1,2.7,1.2l0.6-1.8h1.3l0.6,1.8c1-0.2,1.9-0.6,2.7-1.1l-0.9-1.8l0.9-1l1.8,0.9
		c0.5-0.8,0.9-1.7,1.1-2.7L354,8.5V7.2z M349.1,9.9c-1.1,0-2-0.9-2-2c0-1.1,0.9-2,2-2s2,0.9,2,2C351.1,9,350.2,9.9,349.1,9.9z"/>
	<path d="M370,7.2l2-0.6c-0.2-1-0.5-1.9-1-2.7l-1.7,0.9l-0.9-0.9l0.9-1.8c-0.8-0.5-1.7-0.9-2.7-1L365.9,3h-1.3l-0.6-1.9
		c-1,0.2-1.9,0.5-2.7,1.1l0.9,1.8l-0.9,0.9l-1.8-0.9c-0.5,0.8-1,1.7-1.2,2.7l1.8,0.6v1.3l-1.8,0.6c0.2,1,0.6,1.9,1.1,2.7l1.8-0.9
		l1,0.9l-0.9,1.8c0.8,0.5,1.7,1,2.7,1.2l0.6-1.8h1.3l0.6,1.8c1-0.2,1.9-0.6,2.7-1.1l-0.9-1.8l0.9-1l1.8,0.9c0.5-0.8,0.8-1.7,1-2.7
		l-2-0.6V7.2z M365.2,9.9c-1.1,0-2-0.9-2-2c0-1.1,0.9-2,2-2s2,0.9,2,2C367.2,9,366.3,9.9,365.2,9.9z"/>
	<g>
		<path class="st8" d="M383,9"/>
		<rect x="377" y="1" class="st12" width="11" height="1"/>
		<rect x="387" y="2" class="st12" width="1" height="10"/>
		<rect x="374" y="5" class="st12" width="10" height="10"/>
		<polygon class="st21" points="377,7 381,10 377,13 		"/>
		<rect x="375" y="3" class="st12" width="11" height="1"/>
		<rect x="385" y="4" class="st12" width="1" height="10"/>
	</g>
	<g>
		<path class="st8" d="M399,9"/>
		<rect x="393" y="1" class="st21" width="11" height="1"/>
		<rect x="403" y="2" class="st21" width="1" height="10"/>
		<rect x="390" y="5" class="st21" width="10" height="10"/>
		<polygon class="st12" points="393,7 397,10 393,13 		"/>
		<rect x="391" y="3" class="st21" width="11" height="1"/>
		<rect x="401" y="4" class="st21" width="1" height="10"/>
	</g>
	<g>
		<g>
			<g>
				<line class="st19" x1="408" y1="8" x2="415" y2="8"/>
				<g>
					<polygon class="st12" points="414,1.9 414,14.1 420.1,8 					"/>
				</g>
			</g>
		</g>
		<path class="st12" d="M408,2h3h1h1V1h-1h-1h-3c-1.1,0-2,0.9-2,2v10c0,1.1,0.9,2,2,2h3h1h1v-1h-1h-1h-3c-0.6,0-1-0.4-1-1V3
			C407,2.4,407.4,2,408,2z"/>
	</g>
	<g>
		<g>
			<g>
				<line class="st2" x1="424" y1="8" x2="431" y2="8"/>
				<g>
					<polygon class="st11" points="430,1.9 430,14.1 436.1,8 					"/>
				</g>
			</g>
		</g>
		<path class="st11" d="M424,2h3h1h1V1h-1h-1h-3c-1.1,0-2,0.9-2,2v10c0,1.1,0.9,2,2,2h3h1h1v-1h-1h-1h-3c-0.6,0-1-0.4-1-1V3
			C423,2.4,423.4,2,424,2z"/>
	</g>
	<polygon class="st12" points="243,23 241,25 246,30 255,21 253,19 246,26 	"/>
	<polygon class="st21" points="259,23 257,25 262,30 271,21 269,19 262,26 	"/>
	
		<rect x="297.6" y="18.2" transform="matrix(-0.7071 -0.7071 0.7071 -0.7071 495.5757 247.2742)" class="st8" width="2.8" height="5.7"/>
	<g>
		
			<rect x="299.8" y="18.1" transform="matrix(-0.7071 0.7071 -0.7071 -0.7071 526.7742 -179.197)" class="st17" width="1.4" height="2.8"/>
		<polygon class="st17" points="297,21 290,28 290,30 292,30 299,23 		"/>
	</g>
	<polygon class="st12" points="290,29 291,30 292,30 293,29 291,27 290,28 	"/>
	
		<rect x="281.6" y="18.2" transform="matrix(-0.7071 -0.7071 0.7071 -0.7071 468.262 235.9605)" class="st17" width="2.8" height="5.7"/>
	<g>
		
			<rect x="283.8" y="18.1" transform="matrix(-0.7071 0.7071 -0.7071 -0.7071 499.4604 -167.8833)" class="st8" width="1.4" height="2.8"/>
		<polygon class="st8" points="281,21 274,28 274,30 276,30 283,23 		"/>
	</g>
	<polygon class="st21" points="274,29 275,30 276,30 277,29 275,27 274,28 	"/>
	<polygon class="st12" points="305,17 305,31 319,31 319,20 316,17 	"/>
	<rect x="308" y="18" class="st21" width="8" height="3"/>
	<rect x="307" y="23" class="st21" width="10" height="6"/>
	<rect x="314" y="18" class="st12" width="1" height="2"/>
	<polygon class="st21" points="321,17 321,31 335,31 335,20 332,17 	"/>
	<rect x="324" y="18" class="st12" width="8" height="3"/>
	<rect x="323" y="23" class="st12" width="10" height="6"/>
	<rect x="330" y="18" class="st21" width="1" height="2"/>
</g>
</svg>
